<svg xmlns="http://www.w3.org/2000/svg" viewBox="0 0 32 32">
  <defs>
    <linearGradient id="gradient" x1="0%" y1="0%" x2="100%" y2="100%">
      <stop offset="0%" style="stop-color:#8b5cf6"/>
      <stop offset="100%" style="stop-color:#d946ef"/>
    </linearGradient>
  </defs>
  <rect width="32" height="32" rx="6" fill="url(#gradient)"/>
  <path d="M16 8c-1.5 0-2.5.5-3 1v14c.5-.5 1.5-1 3-1s2.5.5 3 1V9c-.5-.5-1.5-1-3-1z" fill="none" stroke="white" stroke-width="1.5" stroke-linecap="round" stroke-linejoin="round"/>
  <path d="M13 9c-.5-.5-1.5-1-3-1-2 0-3 1-3 1v12s1-1 3-1c1.5 0 2.5.5 3 1" fill="none" stroke="white" stroke-width="1.5" stroke-linecap="round" stroke-linejoin="round"/>
  <path d="M19 9c.5-.5 1.5-1 3-1 2 0 3 1 3 1v12s-1-1-3-1c-1.5 0-2.5.5-3 1" fill="none" stroke="white" stroke-width="1.5" stroke-linecap="round" stroke-linejoin="round"/>
</svg>
